HIERARCHY
ROOT Hips
{
	OFFSET 0.000000 0.000000 0.000000 
	CHANNELS 6 Xposition Yposition Zposition Yrotation Zrotation Xrotation 
	JOINT Lumbar
	{
		OFFSET 0.000000 0.000000 0.000000 
		CHANNELS 3 Zrotation Xrotation Yrotation
		JOINT Neck
		{
			OFFSET 0.000000 0.445665 0.000000 
			CHANNELS 3 Zrotation Xrotation Yrotation
			End Site
			{
				OFFSET 0.000000 0.227535 0.000000 
			}
		}
		JOINT RightShoulder
		{
			OFFSET 0.019635 0.377685 0.194865 
			CHANNELS 3 Zrotation Xrotation Yrotation
			JOINT RightElbow
			{
				OFFSET 0.000000 -0.243375 0.000000 
				CHANNELS 2 Zrotation Yrotation
				JOINT RightWrist
				{
					OFFSET 0.000000 -0.264825 0.000000 
					CHANNELS 2 Zrotation Xrotation
					End Site
					{
						OFFSET 0.006600 -0.176220 0.000990 
					}
				}
			}
		}
		JOINT LeftShoulder
		{
			OFFSET 0.019635 0.377685 -0.194865 
			CHANNELS 3 Zrotation Xrotation Yrotation
			JOINT LeftElbow
			{
				OFFSET 0.000000 -0.243375 0.000000 
				CHANNELS 2 Zrotation Yrotation
				JOINT LeftWrist
				{
					OFFSET 0.000000 -0.264825 0.000000 
					CHANNELS 2 Zrotation Xrotation
					End Site
					{
						OFFSET 0.006600 -0.176220 -0.000990 
					}
				}
			}
		}
	}
	JOINT RightHip
	{
		OFFSET 0.052140 -0.069960 0.075570 
		CHANNELS 3 Zrotation Xrotation Yrotation
		JOINT RightKnee
		{
			OFFSET 0.000000 -0.402270 0.000000 
			CHANNELS 1 Zrotation
			JOINT RightAnkle
			{
				OFFSET 0.000000 -0.404085 0.000000 
				CHANNELS 3 Zrotation Xrotation Yrotation
				End Site
				{
					OFFSET 0.204105 -0.089430 0.008415 
				}
			}
		}
	}
	JOINT LeftHip
	{
		OFFSET 0.052140 -0.069960 -0.075570 
		CHANNELS 3 Zrotation Xrotation Yrotation
		JOINT LeftKnee
		{
			OFFSET 0.000000 -0.402270 0.000000 
			CHANNELS 1 Zrotation
			JOINT LeftAnkle
			{
				OFFSET 0.000000 -0.404085 0.000000 
				CHANNELS 3 Zrotation Xrotation Yrotation
				End Site
				{
					OFFSET 0.204105 -0.089430 -0.008415 
				}
			}
		}
	}
}
MOTION
Frames: 28
Frame Time: 0.02
1.00411 0.93065 -0.7671 1233.8837 0 -5.67515 -3.44117 7.32302 -4.65842 -36.79174 4.27997 0.70429 39.82266 -22.75497 12.22669 15.91491 80.83429 -2.06063 -3.83578 40.63285 20.41165 -36.72436 25.74531 -94.29753 -19.42176 5.96999 21.26978 3.6023 0.40524 -41.26037 -2.55612 -3.75342 -8.02572 -2.53243 -2.37903 -2.17054 -13.37742 9.07325 -2.75603 -8.32059
0.99202 0.92912 -0.77418 1234.58929 0 -5.47737 -3.6504 7.4282 -4.56728 -36.5878 4.27431 0.81902 40.43845 -22.81557 12.63724 16.38375 80.90819 -1.90097 -4.07901 40.3702 20.23679 -35.84529 28.44353 -94.66376 -20.46166 5.98059 21.40796 3.42931 0.85951 -36.7987 -2.93306 -3.66092 -7.62005 -3.20811 -2.42139 -2.54331 -13.60514 9.46545 -3.0799 -8.63789
0.97967 0.92729 -0.78131 1235.24394 0 -5.21847 -3.88661 7.51737 -4.44189 -36.35682 4.22214 0.91041 40.90846 -22.85328 13.02322 16.88662 80.96942 -1.71795 -4.37789 39.63012 20.11597 -34.87723 31.52625 -94.35847 -21.40034 5.86155 21.3366 3.17101 1.14876 -32.09966 -3.48882 -3.51537 -7.0082 -3.8722 -2.49747 -2.83719 -13.87769 9.8542 -3.41764 -9.00095
0.96739 0.92557 -0.78846 1235.92619 0 -4.98658 -4.10826 7.61733 -4.33554 -36.13927 4.19061 1.00801 41.43374 -22.89827 13.41467 17.37387 81.03638 -1.54625 -4.65904 39.11295 19.96862 -33.99446 34.3666 -94.39195 -22.36115 5.80805 21.35457 2.95525 1.50698 -27.56861 -3.92928 -3.39506 -6.48151 -4.53946 -2.55665 -3.17142 -14.13973 10.24436 -3.74948 -9.33896
0.95535 0.92395 -0.79545 1236.58589 0 -4.75477 -4.34226 7.6993 -4.21149 -35.91586 4.1605 1.12575 42.00461 -22.95697 13.84805 17.86462 81.10522 -1.36935 -4.91143 38.56356 19.8254 -32.93808 37.51056 -94.30246 -23.42548 5.72814 21.38898 2.72139 1.89151 -22.74424 -4.51248 -3.268 -5.97437 -5.21737 -2.62521 -3.48846 -14.35605 10.63749 -4.08075 -9.69008
0.94273 0.92206 -0.80277 1237.28225 0 -4.51077 -4.55541 7.81809 -4.11706 -35.69914 4.11615 1.19496 42.44483 -22.98059 14.17861 18.35301 81.16589 -1.1989 -5.23437 37.972 19.68724 -32.21789 40.09789 -94.30307 -24.24861 5.67176 21.34315 2.50735 2.18542 -18.50128 -4.84772 -3.14347 -5.38929 -5.86717 -2.67949 -3.82141 -14.68462 11.02089 -4.41456 -10.02672
0.9287 0.91945 -0.81094 1238.08793 0 -4.23198 -4.71085 8.01832 -4.11609 -35.50129 4.04988 1.14135 42.57663 -22.92419 14.26511 18.85171 81.21435 -1.04836 -5.75478 37.36307 19.55991 -32.42525 41.16095 -94.70397 -24.43417 5.71289 21.11979 2.34945 2.22028 -15.77767 -4.37122 -3.03505 -4.57119 -6.47017 -2.70683 -4.22156 -15.25611 11.39863 -4.76956 -10.31089
0.91409 0.9166 -0.81945 1238.93347 0 -3.94619 -4.84294 8.26062 -4.14592 -35.3124 3.97001 1.03866 42.57923 -22.83145 14.24045 19.34187 81.2537 -0.90615 -6.3406 36.73172 19.43497 -32.97481 41.63024 -95.21552 -24.37812 5.78165 20.8248 2.21793 2.17581 -13.6772 -3.65175 -2.93204 -3.69498 -7.03846 -2.71444 -4.63839 -15.95144 11.76136 -5.12277 -10.57978
0.89968 0.9139 -0.82784 1239.76421 0 -3.67452 -4.98108 8.49982 -4.15999 -35.12348 3.89245 0.95451 42.63037 -22.74783 14.24248 19.81973 81.29203 -0.76267 -6.88609 36.12381 19.30262 -33.3811 42.29914 -95.68556 -24.43167 5.83724 20.56922 2.08739 2.20208 -11.39079 -3.09963 -2.82918 -2.89291 -7.60668 -2.71765 -5.04616 -16.62391 12.11949 -5.46625 -10.85724
0.88553 0.911 -0.83611 1240.57948 0 -3.35486 -5.13916 8.6715 -4.1804 -34.91629 3.8292 0.88489 42.71927 -22.69387 14.34492 20.36814 81.3509 -0.60738 -7.47999 35.44552 19.19739 -33.7366 43.27485 -96.10694 -24.48818 5.8916 20.27962 1.89991 2.08559 -8.68842 -2.32129 -2.71307 -1.88611 -8.24854 -2.77937 -5.46196 -17.14803 12.53192 -5.85751 -11.12951
0.8707 0.90847 -0.84471 1241.43667 0 -3.13383 -5.2502 8.99318 -4.19519 -34.74996 3.73398 0.77437 42.70084 -22.57072 14.2116 20.7658 81.36602 -0.47941 -7.98575 34.9118 19.03728 -34.27562 43.46958 -96.65026 -24.47542 5.95589 20.04364 1.8374 2.23801 -6.99939 -1.94433 -2.62697 -1.28945 -8.71993 -2.71298 -5.86038 -18.02105 12.81997 -6.14513 -11.40818
0.85403 0.90691 -0.85419 1242.4039 0 -3.19098 -5.23356 9.72533 -4.18869 -34.69148 3.55037 0.55724 42.41735 -22.25812 13.45808 20.76038 81.25351 -0.42144 -8.24967 34.81053 18.71035 -35.27686 41.61576 -97.63007 -24.39215 6.04874 19.99938 2.12229 3.25514 -7.99459 -2.81813 -2.61912 -1.88681 -8.80584 -2.30774 -6.25624 -19.73053 12.83621 -6.17789 -11.70909
0.83669 0.90575 -0.864 1243.41129 0 -3.34685 -5.17099 10.60523 -4.17528 -34.67437 3.33606 0.30205 42.03105 -21.87893 12.47068 20.60125 81.09897 -0.39145 -8.41903 34.8527 18.33071 -36.4437 39.00239 -98.70942 -24.23727 6.1497 20.00731 2.53059 4.5283 -9.98139 -4.08805 -2.64221 -2.89177 -8.707 -1.77283 -6.62579 -21.80326 12.71628 -6.10128 -12.01607
0.81969 0.90449 -0.87365 1244.39809 0 -3.45558 -5.13151 11.414 -4.16412 -34.64042 3.13811 0.06782 41.69283 -21.5347 11.58792 20.50509 80.96975 -0.35101 -8.61991 34.81351 17.98444 -37.50985 36.75806 -99.6621 -24.07425 6.24255 19.97583 2.87737 5.61635 -11.49124 -5.12101 -2.65355 -3.6795 -8.64258 -1.28975 -6.97452 -23.77468 12.61264 -6.05349 -12.32019
0.80253 0.90289 -0.88336 1245.39675 0 -3.57504 -5.08156 12.24351 -4.15793 -34.59887 2.9289 -0.18454 41.34451 -21.16801 10.70771 20.4379 80.81425 -0.30126 -8.8716 34.84175 17.59811 -38.69672 34.3887 -100.9579 -24.0713 6.35537 20.00975 3.24894 6.98756 -13.13704 -6.38512 -2.65518 -4.5978 -8.78656 -0.83344 -7.45966 -25.48707 12.6962 -6.09085 -12.62637
0.78557 0.9021 -0.89301 1246.37894 0 -3.69393 -5.0432 13.06125 -4.13913 -34.58235 2.73679 -0.40636 40.99422 -20.83443 9.76875 20.27375 80.70327 -0.27748 -8.99397 34.76365 17.2832 -39.66518 32.11187 -101.56647 -23.72513 6.42769 19.91857 3.59664 7.83616 -14.72292 -7.2661 -2.68444 -5.34465 -8.45249 -0.29399 -7.65736 -27.81628 12.36369 -5.92863 -12.92719
0.76924 0.90341 -0.9025 1247.31203 0 -3.80248 -5.04463 13.83682 -4.08858 -34.62949 2.59271 -0.54438 40.66685 -20.59413 8.71917 19.88112 80.72851 -0.31838 -8.78348 34.36074 17.17435 -40.00392 30.23823 -100.21027 -22.41629 6.39049 19.48844 3.85867 7.13338 -15.93286 -6.98373 -2.7815 -5.49331 -6.84915 0.46986 -7.04107 -31.81774 10.86494 -5.20977 -13.23399
0.75316 0.90553 -0.9119 1248.2254 0 -3.90428 -5.06007 14.5902 -4.02485 -34.69952 2.46795 -0.6483 40.34105 -20.39204 7.61987 19.39597 80.7994 -0.38448 -8.44567 33.84558 17.14034 -40.11273 28.49452 -98.16774 -20.7726 6.31145 18.92714 4.09037 5.90453 -17.03845 -6.30524 -2.90535 -5.45999 -4.77104 1.3075 -6.14157 -36.41242 8.96246 -4.29978 -13.53048
0.73702 0.90729 -0.92129 1249.14403 0 -3.99908 -5.07144 15.3363 -3.96647 -34.75592 2.33914 -0.76105 40.01319 -20.18246 6.54795 18.95208 80.84764 -0.43913 -8.16497 33.37903 17.07422 -40.31605 26.71864 -96.46542 -19.30365 6.24845 18.41401 4.32894 4.94714 -18.16855 -5.81438 -3.01769 -5.52714 -2.90582 2.09429 -5.38887 -40.70147 7.27711 -3.49857 -13.81791
0.72061 0.90902 -0.9309 1250.08138 0 -4.13965 -5.07144 16.16129 -3.91184 -34.82722 2.19035 -0.90312 39.68766 -19.93002 5.44876 18.50602 80.90291 -0.49466 -7.8838 32.92643 16.99663 -40.56785 24.80025 -94.64212 -17.73339 6.19778 17.95204 4.60093 3.8628 -19.43331 -5.30357 -3.12878 -5.53489 -1.04297 2.96017 -4.55788 -45.1701 5.44173 -2.60134 -14.16607
0.70484 0.911 -0.94002 1250.97246 0 -4.18222 -5.09909 16.81425 -3.84478 -34.87258 2.08681 -0.97577 39.3586 -19.77531 4.39619 18.04468 80.95433 -0.55408 -7.57508 32.41775 16.96342 -40.66144 23.22221 -92.91278 -16.29988 6.11203 17.35032 4.79463 2.91351 -20.37611 -4.73701 -3.24785 -5.61604 0.93105 3.67535 -3.82432 -49.3824 3.82873 -1.85972 -14.3821
0.69076 0.91352 -0.94792 1251.75795 0 -3.95367 -5.19962 17.0013 -3.76033 -34.83864 2.11542 -0.8625 39.02366 -19.89434 3.49928 17.56345 80.98943 -0.61688 -7.21764 31.76823 17.01715 -40.37652 22.53452 -91.55577 -15.2904 5.93434 16.40645 4.77818 2.47433 -20.48151 -4.09508 -3.38731 -5.95812 3.12958 3.97095 -3.41822 -52.89462 2.89512 -1.59897 -14.26285
0.67733 0.91626 -0.95532 1252.49416 0 -3.62694 -5.32766 17.01477 -3.66152 -34.77788 2.18688 -0.68089 38.68497 -20.10834 2.6502 17.07113 81.01843 -0.68275 -6.8382 31.06803 17.11637 -39.9391 22.19232 -90.32631 -14.4374 5.72395 15.32422 4.68392 2.18643 -20.25688 -3.41189 -3.53294 -6.37577 5.41585 4.10913 -3.12216 -56.09616 2.20597 -1.50124 -14.00643
0.66362 0.91891 -0.9629 1253.24128 0 -3.34566 -5.44342 17.10429 -3.56005 -34.7306 2.23097 -0.53202 38.34561 -20.27038 1.76977 16.5846 81.04666 -0.7479 -6.47157 30.39897 17.20649 -39.5692 21.70712 -89.07462 -13.53612 5.53166 14.29723 4.6252 1.82231 -20.16071 -2.75797 -3.67222 -6.74773 7.63957 4.30894 -2.7829 -59.34015 1.42783 -1.32645 -13.79433
0.64983 0.92157 -0.97069 1254.03601 0 -3.05941 -5.55893 17.20426 -3.49602 -34.679 2.30878 -0.37469 38.0158 -20.47051 0.92493 16.09057 81.09078 -0.81127 -6.08789 29.69141 17.25071 -39.19875 21.16576 -87.65009 -12.52565 5.3233 13.29719 4.56356 1.47119 -20.15106 -2.04717 -3.8269 -7.16142 9.97784 4.55257 -2.40477 -63.02948 0.54312 -1.15715 -13.65569
0.63637 0.92422 -0.97791 1254.72039 0 -2.7619 -5.68103 17.24257 -3.3519 -34.62938 2.3266 -0.21941 37.66577 -20.61382 0.02189 15.61202 81.10056 -0.87851 -5.737 29.05404 17.39988 -38.79644 20.82316 -86.62241 -11.78547 5.14237 12.21079 4.49139 1.13616 -19.88574 -1.44877 -3.95127 -7.50857 12.08949 4.66741 -2.13771 -65.70024 -0.05745 -1.01806 -13.33442
0.62363 0.92692 -0.98375 1255.10955 0 -2.44324 -5.81721 17.14359 -2.98061 -34.59491 2.16596 -0.08474 37.25681 -20.57338 -1.08598 15.1691 81.00999 -0.95762 -5.4758 28.61877 17.83096 -38.34136 20.9338 -86.68297 -11.74334 5.03508 10.91263 4.39639 0.8071 -18.98016 -1.18392 -3.9845 -7.65267 13.5729 4.45686 -2.1489 -65.70862 0.07902 -0.91984 -12.51907
0.6112 0.92959 -0.98903 1255.38982 0 -2.11935 -5.95853 16.99036 -2.53118 -34.56288 1.94404 0.04506 36.82877 -20.47318 -2.24752 14.74462 80.88613 -1.04007 -5.25019 28.25763 18.36457 -37.86045 21.23368 -87.13742 -11.97087 4.9584 9.53455 4.29601 0.49183 -17.83234 -1.03304 -3.98797 -7.72815 14.81867 4.12317 -2.26934 -64.6846 0.49261 -0.84788 -11.52967
